<?xml version="1.0" encoding="UTF-8" standalone="no"?>
<!-- Created with Inkscape (http://www.inkscape.org/) -->

<svg
   version="1.1"
   id="svg1"
   width="399"
   height="399"
   viewBox="0 0 399 399"
   sodipodi:docname="logotive3.svg"
   inkscape:version="1.4.2 (f4327f4, 2025-05-13)"
   xmlns:inkscape="http://www.inkscape.org/namespaces/inkscape"
   xmlns:sodipodi="http://sodipodi.sourceforge.net/DTD/sodipodi-0.dtd"
   xmlns:xlink="http://www.w3.org/1999/xlink"
   xmlns="http://www.w3.org/2000/svg"
   xmlns:svg="http://www.w3.org/2000/svg">
  <defs
     id="defs1">
    <linearGradient
       id="linearGradient402"
       inkscape:collect="always">
      <stop
         style="stop-color:#ffc50d;stop-opacity:1;"
         offset="0"
         id="stop402" />
      <stop
         style="stop-color:#ffc50d;stop-opacity:0.96078431;"
         offset="0.34525898"
         id="stop406" />
      <stop
         style="stop-color:#ffc50d;stop-opacity:0.82352941;"
         offset="0.63499868"
         id="stop405" />
      <stop
         style="stop-color:#ffc50d;stop-opacity:0.50980392;"
         offset="0.97949666"
         id="stop404" />
      <stop
         style="stop-color:#ffc50d;stop-opacity:0;"
         offset="1"
         id="stop403" />
    </linearGradient>
    <linearGradient
       inkscape:collect="always"
       xlink:href="#linearGradient402"
       id="linearGradient403"
       x1="168.78474"
       y1="69.159599"
       x2="261.5842"
       y2="327.72519"
       gradientUnits="userSpaceOnUse"
       spreadMethod="repeat" />
  </defs>
  <sodipodi:namedview
     id="namedview1"
     pagecolor="#505050"
     bordercolor="#eeeeee"
     borderopacity="1"
     inkscape:showpageshadow="0"
     inkscape:pageopacity="0"
     inkscape:pagecheckerboard="0"
     inkscape:deskcolor="#505050"
     inkscape:zoom="1.5914787"
     inkscape:cx="142.0063"
     inkscape:cy="206.41181"
     inkscape:window-width="1600"
     inkscape:window-height="837"
     inkscape:window-x="-8"
     inkscape:window-y="-8"
     inkscape:window-maximized="1"
     inkscape:current-layer="g1" />
  <g
     inkscape:groupmode="layer"
     inkscape:label="Image"
     id="g1">
    <path
       id="path2"
       style="display:inline;opacity:1;fill:url(#linearGradient403);fill-opacity:1"
       d="m 286.70312,143.47852 c -59.66432,38.5862 -118.45912,75.52409 -177.21289,112.80859 14.97271,17.77818 24.64626,29.07179 32.94727,36.28711 l -6.87109,22.77734 14.76562,4.28125 5.22266,-18.53711 c 1.08175,0.92449 1.42103,1.12058 6.24414,3.57422 2.69241,1.34652 5.66216,1.91561 8.5625,2.63086 l -4.94922,17.08399 14.92383,4.0039 5.4188,-19.49599 c 0.50325,-0.007 5.88654,-0.13868 13.74526,-2.14268 7.91839,-2.0902 15.01764,-6.19591 21.67773,-10.83789 5.07769,-3.10305 9.11789,-7.42319 13.07813,-11.78125 6.92032,-8.22482 9.21349,-18.77105 9.77734,-29.21875 -0.73622,-22.33698 -17.29936,-38.67697 -31.2207,-54.46875 l 79.23047,-50.93555 z m -92.74414,68.80468 c 6.66739,7.50074 13.28868,15.03119 19.10547,23.21485 7.64557,10.47458 6.59622,20.74217 5.55274,25.32617 -5.07124,16.37073 -24.91925,23.21377 -28.10157,24.21484 -5.31745,1.29704 -10.71644,1.10511 -16.10546,0.66602 -17.97045,-5.08895 -29.11282,-21.44811 -40.87696,-34.87891 z m 19.05079,-144.736325 -5.1836,19.322266 c -3.2745,-0.05024 -6.49947,0.391966 -9.74023,0.785156 -7.63205,1.525648 -10.11869,2.41601 -23.40625,10.210937 -4.81526,3.148596 -8.95749,7.125896 -12.95899,11.230466 -7.52318,8.8364 -10.45895,19.26996 -11.54603,30.5932 0.85149,21.6806 17.10401,38.09723 30.69592,53.41735 l -29.12299,19.04944 -52.15385,32.82087 5.22266,5.89063 177.26367,-113.1875 C 271.352,126.1479 262.12885,113.04474 250.14453,102.72015 l 6.37695,-21.977962 -14.60742,-3.95413 -4.55664,16.678739 c -1.72915,-0.990487 -3.54228,-1.814246 -5.33984,-2.669922 -3.13897,-1.088309 -6.25899,-2.032917 -9.58203,-2.357422 l 4.55468,-16.808594 z m -0.85352,41.308595 c 21.20312,0.9334 34.25736,20.6033 46.54297,35.43359 l -59.20508,37.32227 c -6.24372,-7.6016 -12.62558,-15.09021 -18.77148,-22.77149 -5.15313,-6.56732 -7.0087,-14.5899 -5.66602,-22.66015 2.28581,-12.50164 13.64199,-19.54443 21.43945,-23.76953 4.89821,-2.42185 10.25397,-3.23091 15.66016,-3.55469 z"
       sodipodi:nodetypes="ccccccccccccccccccccccccccccccccccccccccccccccccccc" />
  </g>
</svg>
