<svg width="210mm" height="297mm" viewBox="0 0 210 297" xmlns:xlink="http://www.w3.org/1999/xlink" xmlns="http://www.w3.org/2000/svg"><defs><linearGradient xlink:href="#a" id="b" x1="168.785" y1="69.16" x2="261.584" y2="327.725" gradientUnits="userSpaceOnUse" spreadMethod="repeat" gradientTransform="translate(-103.266 -61.533)scale(1.06314)"/><linearGradient id="a"><stop style="stop-color:#ffc50d;stop-opacity:1" offset="0"/><stop style="stop-color:#ffc50d;stop-opacity:.96078431" offset=".345"/><stop style="stop-color:#ffc50d;stop-opacity:.82352941" offset=".635"/><stop style="stop-color:#ffc50d;stop-opacity:.50980392" offset=".979"/><stop style="stop-color:#ffc50d;stop-opacity:0" offset="1"/></linearGradient></defs><path style="display:inline;fill:url(#b);fill-opacity:1;stroke-width:1.06314" d="M201.54 91.005c-63.432 41.022-125.94 80.292-188.402 119.93 15.918 18.902 26.202 30.908 35.027 38.58L40.86 273.73l15.698 4.551 5.553-19.707c1.15.983 1.51 1.191 6.638 3.8 2.862 1.431 6.02 2.036 9.103 2.797l-5.261 18.162 15.866 4.257 5.76-20.727c.536-.008 6.259-.148 14.614-2.278 8.418-2.222 15.966-6.587 23.046-11.522 5.398-3.3 9.694-7.892 13.904-12.525 7.357-8.744 9.795-19.957 10.395-31.064-.783-23.747-18.392-41.119-33.192-57.908l84.233-54.151zm-98.6 73.149c7.088 7.974 14.128 15.98 20.312 24.68 8.128 11.136 7.012 22.052 5.903 26.925-5.392 17.405-26.493 24.68-29.876 25.744-5.653 1.38-11.393 1.175-17.122.708-19.105-5.41-30.951-22.802-43.458-37.08zm20.253-153.875-5.51 20.542c-3.482-.053-6.91.417-10.356.835-8.114 1.622-10.757 2.568-24.884 10.855-5.12 3.348-9.523 7.576-13.777 11.94-7.998 9.394-11.12 20.487-12.275 32.525.905 23.05 18.184 40.502 32.634 56.79l-30.962 20.252-55.447 34.893 5.553 6.263L196.625 84.84c-11.406-12.26-21.211-26.19-33.952-37.167l6.78-23.366-15.53-4.204-4.845 17.732c-1.838-1.053-3.766-1.929-5.677-2.838-3.337-1.157-6.654-2.162-10.187-2.507l4.843-17.87zm-.907 43.916c22.542.993 36.42 21.905 49.482 37.671l-62.944 39.68c-6.638-8.082-13.422-16.044-19.956-24.21-5.479-6.982-7.451-15.511-6.024-24.091 2.43-13.291 14.503-20.779 22.793-25.27 5.208-2.575 10.902-3.435 16.65-3.78"/></svg>